<svg xmlns="http://www.w3.org/2000/svg" xmlns:xlink="http://www.w3.org/1999/xlink" width="43px" height="41px" viewBox="0 0 43 41"><title>Group</title><g id="final" stroke="none" stroke-width="1" fill="none" fill-rule="evenodd"><g id="whatWeOffer4" transform="translate(-1314, -1362)" fill-rule="nonzero"><g id="Group" transform="translate(1315, 1363)"><path d="M0.486403041,17.0638096 C-0.765528195,13.8173906 0.449938121,9.99460482 3.54892122,9.07043864 C3.65484962,9.0388491 3.7621907,9.01298646 3.87066932,8.99265561 C3.29465993,8.09774901 3.71384038,6.53264522 4.84178393,5.30540825 C6.27589883,3.74504751 8.43688821,3.07961039 10.8461175,3.75460245 C11.4571377,2.72939951 12.5530657,1.74746554 14.1734779,0.850822196 C16.4075264,-0.385372418 19.7816104,0.111931351 20.49334,1.65842233 C21.2784764,0.866175309 22.4971671,0.253373505 23.8152973,0.064113587 C26.2570927,-0.286484531 28.5475796,0.797569371 30.0251896,3.39638168 C30.1221353,3.36412485 30.2197331,3.33346286 30.3178809,3.30444042 C33.8237924,2.26773789 37.4713181,3.79435181 38.7399769,7.26458211 C39.8256403,10.2342551 38.4256064,13.7640819 35.4900962,14.8562592 L9.55631367,21.8292918 C4.78384086,21.8808228 1.73314079,20.2967611 0.486403041,17.0638096 Z" id="Combined-Shape-Copy-28" stroke="#F15A24" stroke-width="1.5"></path><path d="M31.7891162,20.7917224 C31.3766081,21.1047493 30.9059441,21.363296 30.4194603,21.5676877 C30.2488079,21.6393857 30.0891754,21.6988487 29.9459317,21.7464804 C29.863784,21.7737964 29.8082831,21.7903631 29.7847544,21.7966966 L30.1128262,23.0267306 C30.2938795,22.9779935 30.5839171,22.8815498 30.9427477,22.7307903 C31.538473,22.4805017 32.1174954,22.1624312 32.6391628,21.7665703 C34.1051343,20.6541357 34.8976652,19.4687334 34.557152,17.760579 L36.8122051,17.1535494 C39.1602523,16.9972113 41.4467255,18.9924729 41.9030511,21.5854546 C42.4737174,24.8281554 40.4656788,27.5725921 37.4426109,28.3041835 C35.9086022,28.6754181 34.2873838,28.5612558 33.1668375,27.9368731 C32.4340643,27.5285624 31.9164827,26.9149808 31.6538409,26.0783705 C31.6253001,25.8871399 31.5802053,25.6919986 31.5178514,25.4930899 C31.433663,24.9624157 31.4342927,24.3587455 31.5269916,23.6788396 L30.1491401,23.5799697 C30.0585312,24.2445475 30.0451988,24.8606452 30.1078644,25.4527341 C30.1440736,25.7816279 30.2051321,26.0933303 30.2902191,26.3874374 C30.3317324,27.3048477 29.9004334,28.0382697 28.9655229,28.6730331 C28.5667425,28.9437878 28.114391,29.1724122 27.6489229,29.3572412 C27.4854063,29.4221706 27.3326136,29.4766979 27.1955524,29.5209714 C27.1165427,29.5464931 27.0628283,29.5622921 27.203396,30.1836263 L27.0393601,29.5686095 L27.367432,30.7986433 C27.5354219,30.7534227 27.806804,30.6657608 28.1442558,30.5317648 C28.7055068,30.3089023 29.2537325,30.0318218 29.7522256,29.6933667 C30.4162267,29.2425387 30.9312384,28.7252305 31.2630614,28.1483969 C31.5842121,28.4991139 31.9670032,28.7981714 32.4076153,29.0436861 C33.4766913,29.639389 34.8341244,29.8739161 36.2198985,29.7782855 C36.228301,32.2758987 35.0661252,33.9368221 33.2135073,34.6805101 C31.6641463,35.302463 29.9058721,35.1036772 29.3157431,34.3780114 C28.2139465,33.0231618 28.6972337,31.9615221 30.8154932,31.3913154 L30.4874213,30.1612816 C27.4451395,30.9802225 26.4870726,33.0848139 28.1906021,35.1795983 C28.4139186,35.4542046 28.7076685,35.6813711 29.0524149,35.8594357 C29.2689499,36.894035 27.0900847,38.7513871 24.9794685,38.7849278 C21.6466314,38.8378913 19.991021,37.7720368 19.591034,35.9772271 C19.2980043,34.6623524 19.8104751,32.9213392 20.3486352,32.474356 L19.4480938,31.5396024 C18.496627,32.3298684 17.8421764,34.5532284 18.2300956,36.2938884 C18.429563,37.1889321 18.8631951,37.9492802 19.53261,38.5479155 C18.1480336,39.9600457 16.4885725,40.301691 14.9186932,39.7484306 C13.5360393,39.2611523 12.6590112,38.1714874 12.9028824,37.5769263 C12.9851446,37.3763707 13.0867019,37.1905702 13.2046306,37.0214903 C13.4094608,36.8410723 13.6013712,36.6400867 13.779072,36.421912 C14.5705233,35.8233725 15.673169,35.715167 16.7164284,36.3463441 L17.5164183,35.2632098 C16.6114146,34.715678 15.6539505,34.5456491 14.7680311,34.674133 C14.8879604,34.3549892 14.9854905,34.0236323 15.0587033,33.6850862 C15.2551892,32.7765091 15.2387161,31.9223102 14.9836904,31.2986989 C14.6484698,30.4789871 13.8947587,30.070957 12.9394164,30.311095 L13.2427058,31.5475788 C13.4771389,31.4886509 13.5746934,31.541463 13.681321,31.8021985 C13.834941,32.177844 13.8469565,32.8008934 13.6972113,33.4933353 C13.5249744,34.2897821 13.1884775,35.0232181 12.7526233,35.5896375 C12.5431444,35.7679111 12.3505405,35.9683917 12.1784875,36.188738 C11.8850692,36.4290016 11.5670494,36.5988536 11.2371068,36.6779765 C8.75299847,37.273686 6.22686337,34.9095235 5.74500065,31.8472579 C5.2637306,28.7887591 6.39986775,26.5174459 10.1082322,24.341894 L14.9700282,23.0331662 C15.8349045,23.6789441 16.4269173,24.4679933 16.6935868,25.2331765 C16.9980345,26.1067607 16.8374939,27.1689184 16.5617259,28.1025484 C16.4744705,28.3979569 16.3692282,28.6700431 16.2568324,28.9110903 C16.1915333,29.0511329 16.1407094,29.1459502 16.1155356,29.188068 L17.3239273,29.7651941 C17.3713916,29.6857824 17.4433254,29.551582 17.5283858,29.3691589 C17.6107695,29.1924766 17.6894998,29.0035966 17.762102,28.8038585 C18.2636987,29.1903126 18.8504817,29.3928061 19.4908533,29.4253984 C20.1737171,29.4601532 20.8253667,29.3047516 21.4003194,29.0569176 C21.521947,29.0044898 21.6137744,28.9589773 21.6717354,28.9269794 L21.0026349,27.8344898 C20.9859862,27.843681 20.9380102,27.8674594 20.8640563,27.8993372 C20.4853572,28.0625759 20.0516437,28.1660055 19.6344046,28.1447698 C19.0654976,28.1158149 18.586297,27.8585725 18.1936077,27.2627531 C18.2274238,26.4966218 18.1639158,25.6911747 17.8918859,24.9106106 C17.542997,23.9095064 17.1949841,23.2520431 16.3785454,22.6540125 L21.9413764,21.1565741 C22.0818593,22.2833795 21.5395947,23.0627741 20.5430081,23.8190217 C20.1305,24.1320485 19.6598359,24.3905953 19.1733521,24.594987 C19.0026998,24.666685 18.8430673,24.726148 18.6998236,24.7737797 C18.6176757,24.8010956 18.562175,24.8176624 18.5386463,24.8239961 L18.866718,26.0540299 C19.0477714,26.0052928 19.3378088,25.9088491 19.6966394,25.7580896 C20.2923648,25.507801 20.8713872,25.1897304 21.3930546,24.7938696 C21.79959,24.4853751 22.1481861,24.1482131 22.4318928,23.7834828 C22.6984446,24.0468097 23.0277042,24.2219648 23.4029651,24.3100035 C23.6680317,24.3721898 23.9325214,24.3851625 24.1870527,24.3632882 C24.3437257,24.3498238 24.469549,24.3260996 24.5567228,24.3026337 L24.2286509,23.0725998 C24.1545131,23.0925567 23.9823647,23.1073511 23.8058082,23.0659298 C23.5144726,22.9975805 23.2976099,22.7928991 23.1721081,22.3115659 C23.3178111,21.7569259 23.3727672,21.3150886 23.2839547,20.7951703 L33.2088266,18.1235299 C33.3528945,19.2578705 32.793034,20.0299118 31.7891162,20.7917224 Z M22.3379996,31.7112272 C22.828373,31.5023646 23.3057226,31.2403963 23.7421437,30.9175978 C23.9994402,31.697995 24.5799161,32.5465694 25.4616301,33.4748796 L26.5304494,32.5869491 C25.327193,31.3201039 24.8591657,30.3415828 25.0253408,29.7046072 L24.9360357,29.6879528 C25.5708626,28.7247631 25.7484112,27.5595901 25.326884,26.2149001 L23.9791628,26.630839 C24.4179356,28.0305429 24.0078496,29.0487787 22.9891935,29.8425035 C22.6327727,30.1202223 22.2244541,30.3490454 21.8017635,30.5290802 C21.6534906,30.5922333 21.5148512,30.6444188 21.3906413,30.686016 C21.3200583,30.7096541 21.2730098,30.723749 21.2542511,30.7287987 L21.5881974,31.9808577 C21.7534245,31.9363808 22.0152264,31.8487044 22.3379996,31.7112272 Z" id="Combined-Shape-Copy-10" fill="#F15A24"></path></g></g></g></svg>