<svg xmlns="http://www.w3.org/2000/svg" xmlns:xlink="http://www.w3.org/1999/xlink" width="41px" height="34px" viewBox="0 0 41 34"><title>Group 14</title><g id="final" stroke="none" stroke-width="1" fill="none" fill-rule="evenodd"><g id="whatWeOffer4" transform="translate(-1012, -1366)" stroke="#FFFFFF" stroke-width="1.5"><g id="Group-14" transform="translate(1012, 1366)"><rect id="Rectangle" x="0.75" y="0.75" width="36.5" height="32.5" rx="4"></rect><line x1="1.56825397" y1="7.5" x2="36.9444444" y2="7.5" id="Line" fill="#3A648D" stroke-linecap="square"></line><line x1="5" y1="4.5" x2="8" y2="4.5" id="Line-Copy" fill="#3A648D" stroke-linecap="round"></line><line x1="11" y1="4.5" x2="14" y2="4.5" id="Line-Copy-2" fill="#3A648D" stroke-linecap="round"></line><line x1="20" y1="4.5" x2="30.5" y2="4.5" id="Line-Copy-4" fill="#3A648D" stroke-linecap="round"></line><line x1="11" y1="12.5" x2="27" y2="12.5" id="Line-Copy-5" fill="#3A648D" stroke-linecap="round"></line><line x1="11" y1="15.5" x2="27" y2="15.5" id="Line-Copy-6" fill="#3A648D" stroke-linecap="round"></line><line x1="11" y1="18.5" x2="27" y2="18.5" id="Line-Copy-7" fill="#3A648D" stroke-linecap="round"></line><line x1="11" y1="21.5" x2="27" y2="21.5" id="Line-Copy-8" fill="#3A648D" stroke-linecap="round"></line><line x1="11" y1="24.5" x2="19.4444444" y2="24.5" id="Line-Copy-9" fill="#3A648D" stroke-linecap="round"></line><path d="M31.6056794,10 C37.2018931,19.7385216 40,24.6077824 40,24.6077824 C40,24.6077824 40,25.7385216 40,28 L36.5243992,26.3252547 L28,12.0216345 L31.6056794,10 Z" id="Path-34" fill="#002E5B" stroke-linecap="round" stroke-linejoin="round" transform="translate(34, 19) scale(-1, 1) translate(-34, -19)"></path><line x1="34.5" y1="13.5" x2="37.5" y2="15.5" id="Path-35" fill="#3A648D"></line><line x1="28.5" y1="23.5" x2="31.5" y2="25.5" id="Path-36" fill="#3A648D"></line></g></g></g></svg>