<svg xmlns="http://www.w3.org/2000/svg" xmlns:xlink="http://www.w3.org/1999/xlink" width="39px" height="34px" viewBox="0 0 39 34"><title>Group 9 Copy</title><g id="final" stroke="none" stroke-width="1" fill="none" fill-rule="evenodd"><g id="whatWeOffer4" transform="translate(-704, -1365)"><g id="Group-9-Copy" transform="translate(704, 1365)"><rect id="Rectangle" stroke="#FFFFFF" stroke-width="1.5" x="0.75" y="0.75" width="37.5" height="32.5" rx="4"></rect><rect id="Rectangle-Copy-70" stroke="#FFFFFF" stroke-width="1.5" x="5.75" y="13.75" width="27.5" height="5.5" rx="2"></rect><rect id="Rectangle-Copy-76" stroke="#FFFFFF" stroke-width="1.5" x="5.75" y="22.75" width="27.5" height="5.5" rx="2"></rect><g transform="translate(7, 5)" fill="#FFFFFF" fill-rule="nonzero"><path d="M1.84665395,0 C2.3662448,0 2.82030166,0.104463438 3.20882455,0.313390313 C3.59734743,0.522317189 3.8981016,0.815527066 4.11108703,1.19301994 C4.32407247,1.57051282 4.43056519,2.00617284 4.43056519,2.5 C4.43056519,2.98907882 4.32407247,3.42355176 4.11108703,3.8034188 C3.8981016,4.18328585 3.59617718,4.47768281 3.2053138,4.68660969 C2.81445042,4.89553656 2.3615638,5 1.84665395,5 L0,5 L0,0 L1.84665395,0 Z M1.76941748,3.94586895 C2.22347434,3.94586895 2.57688974,3.82003799 2.82966366,3.56837607 C3.08243759,3.31671415 3.20882455,2.96058879 3.20882455,2.5 C3.20882455,2.03941121 3.08243759,1.68091168 2.82966366,1.42450142 C2.57688974,1.16809117 2.22347434,1.03988604 1.76941748,1.03988604 L1.20067614,1.03988604 L1.20067614,3.94586895 L1.76941748,3.94586895 Z" id="Shape"></path><path d="M8.09500693,4.11680912 L6.25537448,4.11680912 L5.96047157,5 L4.70362344,5 L6.48708391,0 L7.8773405,0 L9.66080097,5 L8.38990985,5 L8.09500693,4.11680912 Z M7.78606103,3.17663818 L7.17519071,1.34615385 L6.57134189,3.17663818 L7.78606103,3.17663818 Z" id="Shape"></path><polygon id="Path" points="13.6692961 0 13.6692961 0.975783476 12.3632975 0.975783476 12.3632975 5 11.1626214 5 11.1626214 0.975783476 9.85662275 0.975783476 9.85662275 0"></polygon><path d="M17.2635229,4.11680912 L15.4238904,4.11680912 L15.1289875,5 L13.8721394,5 L15.6555999,0 L17.0458564,0 L18.8293169,5 L17.5584258,5 L17.2635229,4.11680912 Z M16.954577,3.17663818 L16.3437067,1.34615385 L15.7398578,3.17663818 L16.954577,3.17663818 Z" id="Shape"></path><path d="M23.7708911,4.11680912 L21.9312587,4.11680912 L21.6363558,5 L20.3795076,5 L22.1629681,0 L23.5532247,0 L25.3366852,5 L24.065794,5 L23.7708911,4.11680912 Z M23.4619452,3.17663818 L22.8510749,1.34615385 L22.2472261,3.17663818 L23.4619452,3.17663818 Z" id="Shape"></path><polygon id="Path" points="27 0 27 5 25.7993239 5 25.7993239 0"></polygon></g><line x1="9" y1="16.5" x2="9.5" y2="16.5" id="Path-2" stroke="#FFFFFF" stroke-width="1.5" stroke-linecap="round"></line><line x1="9" y1="25.5" x2="9.5" y2="25.5" id="Path-2-Copy-2" stroke="#FFFFFF" stroke-width="1.5" stroke-linecap="round"></line><line x1="13.5" y1="16.5" x2="29.5" y2="16.5" id="Path-2-Copy" stroke="#FFFFFF" stroke-width="1.5" stroke-linecap="round"></line><line x1="13.5" y1="25.5" x2="29.5" y2="25.5" id="Path-2-Copy-3" stroke="#FFFFFF" stroke-width="1.5" stroke-linecap="round"></line></g></g></g></svg>