<svg xmlns="http://www.w3.org/2000/svg" xmlns:xlink="http://www.w3.org/1999/xlink" width="40px" height="35px" viewBox="0 0 40 35"><title>Group 25</title><g id="final" stroke="none" stroke-width="1" fill="none" fill-rule="evenodd"><g id="whatWeOffer4" transform="translate(-399, -1365)"><g id="Group-25" transform="translate(399, 1365)"><line x1="12" y1="33.5" x2="27.6873508" y2="33.5" id="Path-43" stroke="#FFFFFF" stroke-width="1.5" stroke-linecap="round"></line><g id="Group-9-Copy"><rect id="Rectangle" stroke="#FFFFFF" stroke-width="1.5" x="0.75" y="0.75" width="38.5" height="27.5" rx="4"></rect><path d="M13.71582,21.2498953 L13.9518233,21.4623943 C15.5693117,22.9155556 17.6755367,23.7998828 20,23.7998828 C22.3244633,23.7998828 24.4306883,22.9155556 26.0481767,21.4623943 L26.28418,21.2498953 L31.6666667,21.2498953 C31.9671966,21.2455601 32.2467345,21.4066136 32.3982398,21.6713852 C32.5497451,21.9361568 32.5497451,22.2636255 32.3982398,22.5283971 C32.2467345,22.7931687 31.9671966,22.9542222 31.6666667,22.949887 L26.8082683,22.949887 C24.9438883,24.5055366 22.5968658,25.4998744 20,25.4998744 C17.4031342,25.4998744 15.0561117,24.5055366 13.1917317,22.949887 L8.33333333,22.949887 C8.0328034,22.9542222 7.75326553,22.7931687 7.60176023,22.5283971 C7.45025493,22.2636255 7.45025493,21.9361568 7.60176023,21.6713852 C7.75326553,21.4066136 8.0328034,21.2455601 8.33333333,21.2498953 L13.71582,21.2498953 Z M20.7004205,7 L21.0285455,8.91090738 L22.8721452,9.67337754 L24.4549282,8.55543877 L25.4445612,9.54507185 L24.3266225,11.1268026 L25.0890926,12.9714545 L27,13.2995795 L27,14.7004205 L25.0890926,15.0285455 L24.3276741,16.8731974 L25.4445612,18.4549282 L24.4549282,19.4445612 L22.8731974,18.3266225 L21.0285455,19.0890926 L20.7004205,21 L19.2995795,21 L18.9714545,19.0890926 L17.1268026,18.3266225 L15.5450721,19.4445612 L14.5554387,18.4549282 L15.6723257,16.8731974 L14.9109074,15.0285455 L13,14.7004205 L13,13.2995795 L14.9109074,12.9714545 L15.6723257,11.1268026 L14.5554387,9.54507185 L15.5450721,8.55543877 L17.1268026,9.67337754 L18.9714545,8.91090738 L19.2995795,7 L20.7004205,7 Z M20,10 C17.790861,10 16,11.790861 16,14 C16,16.209139 17.790861,18 20,18 C22.209139,18 24,16.209139 24,14 C24,11.790861 22.209139,10 20,10 Z M20,11 C21.6568542,11 23,12.3431458 23,14 C23,15.6568542 21.6568542,17 20,17 C18.3431458,17 17,15.6568542 17,14 C17,12.3431458 18.3431458,11 20,11 Z M20,3.39998326 C22.0937483,3.39998326 24.0319683,4.04795181 25.6901042,5.09997488 L31.6666667,5.09997488 C31.9671966,5.09563966 32.2467345,5.25669311 32.3982398,5.52146473 C32.5497451,5.78623635 32.5497451,6.11370505 32.3982398,6.37847666 C32.2467345,6.64324828 31.9671966,6.80430174 31.6666667,6.79996651 L25.27181,6.79996651 L25.0618492,6.65719356 C23.6093942,5.67316786 21.8752217,5.09997488 20,5.09997488 C18.1247783,5.09997488 16.3906058,5.67316786 14.9381508,6.65719356 L14.72819,6.79996651 L8.33333333,6.79996651 C8.0328034,6.80430174 7.75326553,6.64324828 7.60176023,6.37847666 C7.45025493,6.11370505 7.45025493,5.78623635 7.60176023,5.52146473 C7.75326553,5.25669311 8.0328034,5.09563966 8.33333333,5.09997488 L14.3098958,5.09997488 C15.9680317,4.04795181 17.9062517,3.39998326 20,3.39998326 Z" id="Combined-Shape" fill="#FFFFFF" fill-rule="nonzero"></path></g><line x1="20" y1="28.5455839" x2="20" y2="33.1275864" id="Path-44" stroke="#FFFFFF" stroke-width="1.5" stroke-linecap="round"></line></g></g></g></svg>